<?xml version="1.0" encoding="UTF-8" standalone="no"?>
<!-- Created with Inkscape (http://www.inkscape.org/) -->

<svg
   width="12"
   height="12"
   viewBox="0 0 3.1749999 3.175"
   version="1.1"
   id="svg5"
   inkscape:version="1.2.2 (b0a8486541, 2022-12-01)"
   xml:space="preserve"
   sodipodi:docname="brain.svg"
   xmlns:inkscape="http://www.inkscape.org/namespaces/inkscape"
   xmlns:sodipodi="http://sodipodi.sourceforge.net/DTD/sodipodi-0.dtd"
   xmlns="http://www.w3.org/2000/svg"
   xmlns:svg="http://www.w3.org/2000/svg"><sodipodi:namedview
     id="namedview7"
     pagecolor="#505050"
     bordercolor="#eeeeee"
     borderopacity="1"
     inkscape:showpageshadow="0"
     inkscape:pageopacity="0"
     inkscape:pagecheckerboard="0"
     inkscape:deskcolor="#505050"
     inkscape:document-units="mm"
     showgrid="false"
     inkscape:zoom="33.25"
     inkscape:cx="2.7969925"
     inkscape:cy="6.1804511"
     inkscape:window-width="1360"
     inkscape:window-height="709"
     inkscape:window-x="0"
     inkscape:window-y="29"
     inkscape:window-maximized="1"
     inkscape:current-layer="svg5" /><defs
     id="defs2" /><path
     id="path4849"
     style="color:#000000;display:inline;fill:#9cfeff;stroke-linecap:round;stroke-linejoin:bevel;-inkscape-stroke:none;paint-order:fill markers stroke;fill-opacity:1"
     d="m 1.0178634,0.78659668 a 0.066146,0.066146 0 0 0 -0.050781,0.009766 0.066146,0.066146 0 0 0 -0.019531,0.0917969 c 0.016272,0.025378 0.035022,0.0747839 0.041016,0.12500002 0.00599,0.050216 -6.5e-4,0.1009909 -0.013672,0.1269531 a 0.066146,0.066146 0 0 0 0.029297,0.087891 0.066146,0.066146 0 0 0 0.087891,-0.029297 C 1.123466,1.1361357 1.127487,1.0650807 1.119426,0.99753416 1.111366,0.92998776 1.091234,0.86635651 1.058879,0.81589355 a 0.066146,0.066146 0 0 0 -0.041016,-0.0292969 z m 0.046875,0.29296872 c -0.092717,0.015758 -0.16944224,0.070346 -0.22070314,0.140625 -0.051261,0.070279 -0.077666,0.1577421 -0.0625,0.2460938 0.015166,0.088352 0.075325,0.1732429 0.1777344,0.2246094 a 0.066146,0.066146 0 0 0 0.087891,-0.029297 0.066146,0.066146 0 0 0 -0.029297,-0.089844 c -0.071714,-0.03597 -0.097313,-0.079442 -0.10546881,-0.1269531 -0.00815,-0.047511 0.00636,-0.1016426 0.039063,-0.1464844 0.032707,-0.044842 0.081691,-0.078538 0.13671881,-0.087891 0.055027,-0.00935 0.117666,0.00127 0.1894532,0.058594 a 0.066146,0.066146 0 0 0 0.091797,-0.00977 0.066146,0.066146 0 0 0 -0.00977,-0.09375 C 1.2634396,1.0886627 1.1574553,1.0638074 1.0647384,1.0795654 Z M 1.4202072,0.52292481 a 0.066146,0.066146 0 0 0 -0.050781,0.005859 0.066146,0.066146 0 0 0 -0.025391,0.0898438 c 0.029399,0.0525657 0.054965,0.11506743 0.099609,0.17382812 0.044644,0.0587607 0.1141176,0.10902204 0.2148437,0.12304688 a 0.066146,0.066146 0 0 0 0.076172,-0.0566403 0.066146,0.066146 0 0 0 -0.056641,-0.0742188 c -0.070431,-0.009807 -0.09956,-0.0336395 -0.1289063,-0.0722656 -0.029346,-0.0386261 -0.05282,-0.0954981 -0.087891,-0.15820313 a 0.066146,0.066146 0 0 0 -0.041016,-0.03125 z m -0.1582031,-0.140625 a 0.066146,0.066146 0 0 0 -0.080078,0.0488281 0.066146,0.066146 0 0 0 0.048828,0.0800781 c 0.083327,0.0202646 0.1166039,0.0689914 0.125,0.13281249 0.0084,0.0638211 -0.017378,0.14237806 -0.074219,0.19921875 a 0.066146,0.066146 0 0 0 0,0.09375 0.066146,0.066146 0 0 0 0.09375,0 C 1.4605734,0.85169871 1.5010063,0.73584504 1.4866134,0.62644043 1.4722206,0.51703582 1.3921455,0.41394935 1.2620041,0.38229981 Z m 0.9296875,0.18554687 a 0.066146,0.066146 0 0 0 -0.050781,0.003906 c -0.049446,0.0253699 -0.093249,0.0338378 -0.1503909,0.0214846 a 0.066146,0.066146 0 0 0 -0.080078,0.0507813 0.066146,0.066146 0 0 0 0.050781,0.078125 c 0.08695,0.018797 0.1695727,0.003052 0.2402344,-0.0332031 a 0.066146,0.066146 0 0 0 0.029297,-0.0878907 0.066146,0.066146 0 0 0 -0.039063,-0.0332031 z m 0.052734,-0.11523437 a 0.066146,0.066146 0 0 0 -0.087891,0.0332031 c -0.037178,0.0832133 -0.061587,0.19222748 -0.062499,0.28515627 a 0.066146,0.066146 0 0 0 0.064453,0.0664063 0.066146,0.066146 0 0 0 0.066406,-0.0664063 c 6.572e-4,-0.0669188 0.025025,-0.17040446 0.052734,-0.23242187 A 0.066146,0.066146 0 0 0 2.2444256,0.45261231 Z M 2.8205974,0.99362796 A 0.066146,0.066146 0 0 0 2.7327064,1.022925 C 2.7104914,1.06847 2.6820954,1.085962 2.6409094,1.093237 2.5997234,1.100517 2.5440774,1.090987 2.4885657,1.067846 a 0.066146,0.066146 0 0 0 -0.085937,0.037109 0.066146,0.066146 0 0 0 0.035156,0.085937 c 0.072554,0.030239 0.150951,0.046561 0.2265625,0.033203 0.075611,-0.013358 0.1483521,-0.062316 0.1875,-0.1425781 a 0.066146,0.066146 0 0 0 -0.03125,-0.087891 z M 2.2776291,0.90964356 a 0.066146,0.066146 0 0 0 -0.050781,0.003906 C 2.1096144,0.97189316 2.0394022,1.0335452 1.9885666,1.1440186 a 0.066146,0.066146 0 0 0 0.03125,0.087891 0.066146,0.066146 0 0 0 0.087891,-0.033203 c 0.041561,-0.09032 0.070656,-0.11468 0.177734,-0.1679692 a 0.066146,0.066146 0 0 0 0.03125,-0.0878906 0.066146,0.066146 0 0 0 -0.039063,-0.0332032 z M 1.9631759,1.0815186 c -0.1010442,-0.014329 -0.209538,0.00824 -0.2851562,0.00781 a 0.06614584,0.06614584 0 0 0 -0.066406,0.066406 0.06614584,0.06614584 0 0 0 0.064453,0.066406 c 0.097916,5.594e-4 0.2047782,-0.018671 0.2675781,-0.00977 0.0314,0.00445 0.046308,0.012444 0.054687,0.023437 0.00838,0.010994 0.018729,0.033762 0.011719,0.089844 -0.00117,0.00933 -0.00734,0.02311 -0.015625,0.042969 -0.00828,0.019859 -0.019531,0.047948 -0.019531,0.083984 a 0.06614584,0.06614584 0 0 0 0.066406,0.066406 0.06614584,0.06614584 0 0 0 0.066406,-0.066406 c 0,-0.0069 0.00252,-0.015823 0.00977,-0.033203 0.00725,-0.01738 0.019215,-0.042413 0.023437,-0.076172 0.00952,-0.076171 -0.00109,-0.1402482 -0.037109,-0.1875 -0.036017,-0.047252 -0.090103,-0.067054 -0.140625,-0.074219 z m 0.3515626,1.1425781 a 0.079375,0.079375 0 0 0 -0.060547,0.09375 c 0.031543,0.1523899 0.038024,0.3748701 0.029297,0.5488281 -0.00208,0.04137 -0.00783,0.051653 -0.011719,0.064453 -0.020192,-0.012959 -0.0618,-0.042218 -0.1171875,-0.083984 a 0.079375,0.079375 0 0 0 -0.1113281,0.015625 0.079375,0.079375 0 0 0 0.015625,0.1113281 c 0.05775,0.043548 0.1098977,0.1053792 0.1992187,0.1269531 0.02233,0.00539 0.048471,0.00604 0.076172,-0.00391 0.027701,-0.00995 0.05166,-0.029991 0.066406,-0.052734 0.029493,-0.045487 0.037426,-0.096423 0.041016,-0.1679687 0.00925,-0.1843181 0.00343,-0.4148216 -0.033203,-0.5917969 a 0.079375,0.079375 0 0 0 -0.09375,-0.060547 z M 1.8596603,2.0912842 a 0.079375,0.079375 0 0 0 -0.013672,0.1113281 c 0.1316954,0.1703561 0.1933594,0.4844223 0.1933594,0.71875 a 0.079375,0.079375 0 0 0 0.080078,0.078125 0.079375,0.079375 0 0 0 0.080078,-0.078125 c 0,-0.2600692 -0.057572,-0.5933274 -0.2285157,-0.8144531 A 0.079375,0.079375 0 0 0 1.8596603,2.0912842 Z M 1.4163009,1.6127686 a 0.066146,0.066146 0 0 0 -0.044922,0.021484 c -0.055243,0.060426 -0.063452,0.1436714 -0.037109,0.2070313 0.026342,0.06336 0.076415,0.1124048 0.1328125,0.1503906 0.056398,0.037986 0.1199158,0.065825 0.1835937,0.072266 0.031839,0.00322 0.064062,4.862e-4 0.095703,-0.011719 0.031641,-0.012205 0.061117,-0.037101 0.078125,-0.070312 a 0.066146,0.066146 0 0 0 -0.027344,-0.087891 0.066146,0.066146 0 0 0 -0.089844,0.027344 c -0.00228,0.00445 -0.00181,0.0055 -0.00781,0.00781 -0.006,0.00231 -0.018362,0.00365 -0.035156,0.00195 -0.033589,-0.0034 -0.082384,-0.02144 -0.1230469,-0.048828 -0.040663,-0.027388 -0.074328,-0.063873 -0.085937,-0.091797 -0.01161,-0.027924 -0.011143,-0.039263 0.013672,-0.066406 a 0.066146,0.066146 0 0 0 -0.00586,-0.09375 0.066146,0.066146 0 0 0 -0.046875,-0.017578 z m 0.6621094,0.1367187 a 0.066146,0.066146 0 0 0 -0.0625,0.070312 c 0.0041,0.081124 -0.036666,0.131006 -0.1132812,0.1503906 a 0.066146,0.066146 0 0 0 -0.048828,0.080078 0.066146,0.066146 0 0 0 0.080078,0.046875 C 2.0616231,2.0648229 2.1537489,1.9520072 2.1467697,1.8139404 A 0.066146,0.066146 0 0 0 2.0784103,1.7494873 Z M 2.260051,1.7612063 A 0.06614584,0.06614584 0 0 0 2.220988,1.8471433 C 2.236029,1.8859683 2.237479,1.9500674 2.219038,2.0072995 2.200594,2.0645315 2.163925,2.1120608 2.129194,2.1303464 a 0.06614584,0.06614584 0 0 0 -0.027344,0.089844 0.06614584,0.06614584 0 0 0 0.089844,0.027344 c 0.078038,-0.041087 0.126094,-0.1177648 0.1523437,-0.1992188 0.02625,-0.081454 0.032254,-0.1717821 0.00195,-0.25 A 0.06614584,0.06614584 0 0 0 2.260051,1.7612063 Z m 0.2226562,-0.064453 a 0.06614584,0.06614584 0 0 0 -0.03125,0.087891 c 0.02102,0.043768 0.037696,0.129765 0.037109,0.2109375 -5.869e-4,0.081172 -0.021265,0.1592135 -0.046875,0.1933594 a 0.06614584,0.06614584 0 0 0 0.013672,0.091797 0.06614584,0.06614584 0 0 0 0.09375,-0.013672 c 0.05588,-0.074505 0.071556,-0.1733587 0.072266,-0.2714844 7.094e-4,-0.098126 -0.01548,-0.194071 -0.050781,-0.2675782 a 0.06614584,0.06614584 0 0 0 -0.087891,-0.03125 z M 2.197551,1.3764404 C 1.909013,1.3435759 1.7000477,1.5362766 1.6838791,1.7631592 1.6677104,1.9900418 1.8395368,2.2348073 2.2034103,2.3178467 2.5664162,2.4006881 2.8290241,2.260347 2.9123947,2.0463623 2.9957653,1.8323776 2.8946019,1.5647481 2.6252853,1.4350342 A 0.079375,0.079375 0 0 0 2.5198166,1.4721432 0.079375,0.079375 0 0 0 2.5569256,1.579565 C 2.766413,1.680463 2.8160472,1.8560239 2.7639572,1.9897217 2.7118672,2.1234195 2.551006,2.2348515 2.2385666,2.1635498 1.9269949,2.0924462 1.8319802,1.916632 1.8420822,1.7748779 1.8521842,1.6331239 1.9639165,1.5100347 2.1799728,1.5346436 A 0.079375,0.079375 0 0 0 2.2678638,1.4643316 0.079375,0.079375 0 0 0 2.197551,1.3764404 Z M 2.0510666,0.31198731 C 1.5705962,0.16245183 1.1410038,0.2821806 0.84403526,0.49948731 0.54706686,0.71679401 0.37104085,1.0255541 0.40653532,1.2924561 a 0.079375,0.079375 0 0 0 0.0878906,0.068359 0.079375,0.079375 0 0 0 0.068359,-0.087891 C 0.53950136,1.09784 0.67662326,0.8175458 0.93778526,0.62644043 1.1989474,0.43533506 1.5717789,0.32779931 2.0041916,0.46237793 2.323285,0.5616885 2.5699361,0.72100911 2.7170822,0.93698731 2.8642283,1.1529655 2.9179782,1.4283907 2.8401291,1.7826904 a 0.079375,0.079375 0 0 0 0.060547,0.095703 0.079375,0.079375 0 0 0 0.09375,-0.060547 C 3.0794768,1.4307709 3.0208553,1.102896 2.8479416,0.84909668 2.6750279,0.5952974 2.3941122,0.41875246 2.0510666,0.31198731 Z M 0.47684782,1.2260498 a 0.079375,0.079375 0 0 0 -0.0664063,0.089844 c 0.020155,0.1298143 0.10232284,0.2346861 0.20703134,0.3066404 0.1047084,0.071954 0.2334661,0.1146252 0.3671875,0.1328125 C 1.252103,1.7917213 1.5500077,1.7299375 1.6858322,1.5092529 a 0.079375,0.079375 0 0 0 -0.025391,-0.109375 0.079375,0.079375 0 0 0 -0.109375,0.027344 c -0.0849,0.1379436 -0.319128,0.202585 -0.5449219,0.171875 C 0.89324776,1.5837417 0.78595216,1.5457122 0.70731656,1.4916748 0.62868096,1.4376374 0.58095796,1.3717636 0.56864466,1.2924561 a 0.079375,0.079375 0 0 0 -0.0917968,-0.066406 z" /><path
     id="path9252"
     style="display:inline;fill:#cf70ff;stroke-width:0.00351234;fill-opacity:1"
     d="m 0.92732796,0.07909343 v 0.0320394 0.25218099 c -0.046052,0.0138852 -0.090628,0.0319821 -0.1333252,0.0542603 l -0.1777669,-0.17776699 -0.0227376,-0.0227376 -0.0227377,0.0227376 -0.26613361,0.26613363 -0.0227376,0.0227376 0.0227376,0.0227376 0.17363281,0.17363282 c -0.0257011,0.0461962 -0.0460167,0.0950815 -0.061495,0.14521077 h -0.2485636 -0.0320394 v 0.0320394 0.37620455 0.032039 h 0.0320394 0.21807455 c -0.001058,-0.0021 -0.001924,-0.00382 -0.003101,-0.0062 l -0.004134,-0.00775 C 0.34726368,1.0208011 0.50733796,0.76779559 0.69581756,0.58913982 0.88106076,0.40965999 1.1178273,0.29216014 1.3681279,0.24342448 V 0.11113282 0.07909343 H 1.3360885 0.95988416 Z M 0.451388,1.4934774 0.30462695,1.6402385 l -0.0227376,0.022738 0.0227376,0.022738 0.26613361,0.2661336 0.022738,0.022738 0.022738,-0.022738 0.1777669,-0.1777669 c 0.04588,0.023995 0.09417,0.043167 0.1441773,0.057361 v 0.2490804 0.032039 h 0.032556 0.37620434 0.032039 v -0.03204 -0.1229899 c -0.00982,-0.010686 -0.019029,-0.022155 -0.027388,-0.034106 -0.032997,-0.047174 -0.046356,-0.103691 -0.048576,-0.1581299 -0.2296905,0.04583 -0.47957864,0.010013 -0.67954504,-0.107487 -0.051738,-0.03188 -0.1113417,-0.083717 -0.15812988,-0.144694 -0.004912,-0.0064 -0.009319,-0.013042 -0.0139532,-0.019637 z"
     sodipodi:nodetypes="ccccccccccccccccccccccccccccccccccccccccccccccccc" /></svg>
